<svg width="48" height="48" viewBox="0 0 48 48" fill="none" xmlns="http://www.w3.org/2000/svg">
<g clip-path="url(#clip0_4372_12218)">
<path d="M36.0394 43.6365L44.946 43.6352C46.633 43.6352 48.0001 42.2676 48.0001 40.5806V31.9507C48.0001 31.0592 47.6104 30.2118 46.9336 29.6314L18.3125 5.09904C17.7588 4.62471 17.0536 4.36377 16.3244 4.36377H7.41783C5.73085 4.36377 4.36328 5.73133 4.36328 7.41831V16.0496C4.36328 16.9411 4.75295 17.7885 5.42975 18.3689L34.0504 42.9008C34.6042 43.3756 35.3093 43.6361 36.0389 43.6361L36.0394 43.6365Z" fill="#00D886"/>
<path d="M37.1104 43.6364H44.9454C46.6323 43.6364 47.9999 42.2688 47.9999 40.5818V30.7623C47.9999 30.6179 47.9894 30.4735 47.9694 30.3303L44.0111 2.62255C43.7964 1.11796 42.5074 0 40.9875 0H29.2328C27.5454 0 26.1778 1.368 26.1782 3.05542L26.1817 16.9593C26.1817 17.2874 26.2345 17.6134 26.3384 17.9245L34.213 41.5479C34.6288 42.7951 35.7961 43.6364 37.1109 43.6364H37.1104Z" fill="url(#paint0_linear_4372_12218)"/>
<path d="M3.05455 48H28.5308C29.7526 48 30.857 47.2717 31.3383 46.1489L43.3894 18.031C43.5521 17.6509 43.6364 17.2412 43.6364 16.8275V3.05455C43.6364 1.36756 42.2688 0 40.5818 0H27.1073C26.5039 0 25.9139 0.178909 25.4116 0.514036L1.36015 16.5661C0.510982 17.1329 0.00130909 18.086 0.00130909 19.1066L0 44.9455C0 46.6324 1.36756 48 3.05455 48Z" fill="url(#paint1_linear_4372_12218)"/>
<path d="M39 9H9V39H39V9Z" fill="black"/>
<path d="M25 33H13V35.0001H25V33Z" fill="white"/>
<path d="M17.6754 24.1797C16.6232 24.1797 15.6703 23.9331 14.8167 23.4413C13.9634 22.9436 13.2932 22.2633 12.806 21.3996C12.3193 20.5308 12.0757 19.5619 12.0757 18.4937C12.0757 17.4255 12.3193 16.4595 12.806 15.5958C13.2928 14.727 13.963 14.0459 14.8167 13.554C15.6699 13.0563 16.6228 12.8081 17.6754 12.8081C18.5286 12.8081 19.3141 12.9604 20.0314 13.2637C20.7538 13.5671 21.3613 13.9941 21.8536 14.544C22.3509 15.0939 22.6992 15.727 22.8982 16.4444H20.6049C20.4374 16.099 20.2094 15.8002 19.9216 15.5491C19.6389 15.2929 19.3065 15.0964 18.9241 14.9601C18.5421 14.8187 18.1311 14.748 17.691 14.748C17.0418 14.748 16.4553 14.91 15.932 15.2348C15.4086 15.5596 14.9976 16.0072 14.6989 16.5777C14.4056 17.1432 14.2592 17.7822 14.2592 18.4941C14.2592 19.2059 14.4056 19.848 14.6989 20.418C14.9971 20.9835 15.4082 21.4282 15.932 21.753C16.4558 22.0778 17.0418 22.2397 17.691 22.2397C18.293 22.2397 18.8374 22.127 19.3246 21.9019C19.8169 21.6772 20.2069 21.3651 20.4947 20.9675C20.7824 20.5699 20.9372 20.1223 20.9579 19.6246L20.9659 19.8522H18.3822V18.1638H23.0391V19.0276C23.0391 19.9965 22.8035 20.8733 22.3323 21.6583C21.8662 22.4387 21.225 23.0534 20.4084 23.504C19.5968 23.9546 18.686 24.1792 17.6754 24.1792V24.1797ZM29.6288 22.2949C30.278 22.2949 30.862 22.1329 31.3803 21.8081C31.8986 21.4782 32.3042 21.0255 32.5974 20.4496C32.8907 19.8686 33.0371 19.2165 33.0371 18.4941C33.0371 17.7717 32.8907 17.1226 32.5974 16.5466C32.3042 15.9656 31.8986 15.5129 31.3803 15.1881C30.862 14.8583 30.278 14.6933 29.6288 14.6933C28.9797 14.6933 28.3932 14.8583 27.8698 15.1881C27.3515 15.5129 26.943 15.9656 26.6447 16.5466C26.3515 17.123 26.205 17.7717 26.205 18.4941C26.205 19.2165 26.3515 19.8686 26.6447 20.4496C26.943 21.026 27.3515 21.4782 27.8698 21.8081C28.3932 22.1329 28.9797 22.2949 29.6288 22.2949ZM29.6208 24.1797C28.5686 24.1797 27.6132 23.9331 26.7545 23.4413C25.9013 22.9436 25.2281 22.2633 24.7363 21.3996C24.2496 20.5308 24.006 19.5619 24.006 18.4937C24.006 17.4255 24.2496 16.4595 24.7363 15.5958C25.2286 14.727 25.9013 14.0459 26.7545 13.554C27.6132 13.0563 28.5686 12.8081 29.6208 12.8081C30.6731 12.8081 31.634 13.0563 32.4872 13.554C33.3459 14.0459 34.0186 14.727 34.5054 15.5958C34.9921 16.4595 35.2357 17.4255 35.2357 18.4937C35.2357 19.5619 34.9921 20.5308 34.5054 21.3996C34.0186 22.2633 33.3459 22.9436 32.4872 23.4413C31.634 23.9331 30.6781 24.1797 29.6208 24.1797Z" fill="white"/>
</g>
<defs>
<linearGradient id="paint0_linear_4372_12218" x1="47.7263" y1="40.5338" x2="29.4885" y2="1.19694" gradientUnits="userSpaceOnUse">
<stop offset="0.24" stop-color="#00D886"/>
<stop offset="0.51" stop-color="#007DFE"/>
</linearGradient>
<linearGradient id="paint1_linear_4372_12218" x1="44.5344" y1="3.28538" x2="0.505743" y2="47.314" gradientUnits="userSpaceOnUse">
<stop offset="0.27" stop-color="#007DFE"/>
<stop offset="0.7" stop-color="#D249FC"/>
</linearGradient>
<clipPath id="clip0_4372_12218">
<rect width="48" height="48" fill="white"/>
</clipPath>
</defs>
</svg>
